<?xml version="1.0" standalone="no"?>
<!DOCTYPE svg PUBLIC "-//W3C//DTD SVG 20010904//EN"
 "http://www.w3.org/TR/2001/REC-SVG-20010904/DTD/svg10.dtd">
<svg version="1.0" xmlns="http://www.w3.org/2000/svg"
 width="500.000000pt" height="500.000000pt" viewBox="0 0 500.000000 500.000000"
 preserveAspectRatio="xMidYMid meet">
<metadata>
Created by potrace 1.11, written by Peter Selinger 2001-2013
</metadata>
<g transform="translate(0.000000,500.000000) scale(0.100000,-0.100000)"
fill="#000000" stroke="none">
<path d="M3802 3850 c-215 -57 -383 -221 -436 -426 -9 -35 -16 -102 -16 -154
0 -89 1 -92 30 -122 28 -27 36 -30 73 -25 62 8 87 42 87 117 0 179 79 314 228
387 71 36 81 38 166 37 70 0 105 -6 149 -23 81 -32 168 -114 209 -199 32 -64
33 -71 33 -192 0 -120 -1 -128 -32 -192 -56 -119 -149 -200 -274 -239 -59 -18
-124 -19 -1765 -19 -1881 0 -1742 5 -1779 -64 -19 -36 -19 -36 0 -72 37 -70
-107 -65 1807 -62 1654 3 1735 4 1788 21 166 56 311 175 384 315 41 80 86 242
86 312 0 67 -44 231 -82 302 -49 94 -165 206 -258 251 -141 66 -267 81 -398
47z"/>
<path d="M921 3186 c-68 -38 -64 -146 6 -175 21 -8 224 -11 766 -9 l739 3 29
33 c40 45 39 84 -5 128 l-34 34 -738 0 c-594 -1 -744 -3 -763 -14z"/>
<path d="M1038 2371 c-27 -24 -33 -36 -33 -71 0 -35 6 -47 33 -71 l32 -29
1008 0 c642 0 1023 -4 1051 -11 271 -62 418 -382 294 -639 -113 -232 -423
-290 -613 -113 -87 80 -121 153 -130 284 -6 98 -8 103 -39 131 -35 32 -68 35
-112 13 -38 -20 -49 -50 -49 -133 1 -288 194 -525 478 -588 191 -43 423 36
558 190 51 58 108 166 129 246 18 66 20 246 4 322 -15 73 -78 203 -128 265
-52 64 -147 137 -226 174 -131 60 -118 59 -1219 59 l-1006 0 -32 -29z"/>
</g>
</svg>
