<?xml version="1.0" standalone="no"?>
<!DOCTYPE svg PUBLIC "-//W3C//DTD SVG 20010904//EN"
 "http://www.w3.org/TR/2001/REC-SVG-20010904/DTD/svg10.dtd">
<svg version="1.0" xmlns="http://www.w3.org/2000/svg"
 width="512.000000pt" height="512.000000pt" viewBox="0 0 512.000000 512.000000"
 preserveAspectRatio="xMidYMid meet">
<metadata>
Created by potrace 1.11, written by Peter Selinger 2001-2013
</metadata>
<g transform="translate(0.000000,512.000000) scale(0.100000,-0.100000)"
fill="#000000" stroke="none">
<path d="M2775 3779 c-271 -32 -484 -258 -489 -519 l-1 -44 75 -1 c99 -1 112
4 116 46 7 71 25 116 72 182 112 155 336 196 502 91 134 -84 200 -244 165
-399 -21 -93 -67 -160 -163 -236 -15 -12 -78 -39 -104 -45 -10 -2 -27 -6 -39
-9 -37 -8 -164 -9 -177 -1 -6 4 -12 3 -12 -3 0 -7 -8 -7 -22 -2 -13 4 -34 5
-48 2 -14 -4 -36 -6 -50 -4 -14 2 -32 3 -40 3 -59 -1 -105 2 -113 7 -6 3 -7 1
-3 -5 7 -11 -9 -10 -76 3 -10 2 -20 0 -22 -4 -3 -4 -24 -5 -48 -3 -24 2 -50 3
-58 3 -46 -2 -105 1 -113 6 -6 4 -7 1 -2 -7 5 -8 2 -11 -11 -7 -21 6 -73 10
-89 7 -24 -5 -208 1 -217 7 -7 3 -8 1 -4 -5 7 -11 -9 -10 -76 3 -10 2 -20 0
-22 -4 -3 -4 -24 -5 -48 -3 -24 2 -50 3 -58 3 -46 -2 -105 1 -113 6 -6 4 -7 1
-2 -7 5 -8 2 -11 -11 -7 -21 6 -73 10 -89 7 -24 -5 -208 1 -217 7 -7 3 -8 1
-4 -5 7 -11 -9 -10 -76 3 -10 2 -20 0 -22 -4 -3 -4 -24 -5 -48 -3 -24 2 -50 3
-58 3 -46 -2 -105 1 -113 6 -6 4 -7 1 -2 -7 5 -8 2 -11 -11 -7 -20 6 -73 10
-89 7 -5 -1 -46 -2 -89 -3 l-79 -2 0 -88 c0 -48 2 -90 6 -93 6 -6 2313 -6
2352 0 55 8 201 59 215 76 3 3 23 18 45 34 129 94 213 259 219 430 4 100 -27
245 -61 287 -7 8 -13 20 -13 25 0 14 -38 63 -95 119 -120 121 -287 175 -470
154z"/>
<path d="M4270 3779 c-117 -13 -271 -75 -359 -144 -182 -144 -282 -325 -304
-552 l-5 -53 36 -1 c150 -4 163 -1 157 31 -2 11 -1 20 3 20 4 0 7 15 6 32 -1
18 3 47 8 63 13 41 15 49 16 58 3 30 77 142 127 192 112 114 244 168 405 168
210 0 379 -92 484 -263 62 -100 80 -169 80 -305 -1 -105 -4 -129 -28 -193 -67
-179 -210 -308 -396 -356 -60 -16 -104 -16 -3007 -16 l-1483 0 0 -95 0 -95
2223 1 c2147 1 2225 1 2300 20 43 10 110 34 150 54 64 31 84 42 121 67 6 4 35
29 64 55 104 93 190 232 228 369 25 93 28 263 5 359 -43 175 -142 330 -276
430 -22 17 -42 32 -45 35 -12 13 -129 69 -175 85 -101 34 -223 46 -335 34z"/>
<path d="M1156 2078 c-8 -5 -11 -33 -10 -90 1 -46 2 -86 3 -89 0 -3 606 -6
1345 -6 l1344 0 46 -23 c60 -29 97 -88 98 -158 0 -62 -8 -88 -39 -130 -31 -42
-74 -63 -132 -66 -110 -6 -201 66 -201 159 0 14 -6 25 -12 26 -17 1 -159 1
-174 0 -11 -1 -2 -85 13 -121 3 -8 7 -17 7 -20 4 -22 62 -103 95 -133 237
-214 611 -64 629 252 3 46 -1 95 -8 117 -46 152 -172 265 -313 281 -82 9 -150
9 -169 0 -10 -4 -18 -4 -18 0 0 4 -79 8 -175 8 -96 0 -175 -4 -175 -8 0 -5 -5
-5 -11 -1 -16 10 -58 11 -91 2 -16 -3 -28 -4 -28 0 0 4 -79 7 -175 7 -96 0
-175 -3 -175 -7 0 -4 -12 -3 -27 0 -34 9 -76 8 -92 -2 -6 -4 -11 -4 -11 1 0 4
-79 8 -175 8 -96 0 -175 -4 -175 -8 0 -5 -5 -5 -11 -1 -16 10 -58 11 -91 2
-16 -3 -28 -4 -28 0 0 4 -115 7 -255 7 -140 0 -255 -4 -255 -8 0 -5 -5 -5 -11
-1 -16 10 -58 11 -91 2 -16 -3 -28 -4 -28 0 0 9 -408 9 -424 0z"/>
</g>
</svg>
