<?xml version="1.0" standalone="no"?>
<!DOCTYPE svg PUBLIC "-//W3C//DTD SVG 20010904//EN"
 "http://www.w3.org/TR/2001/REC-SVG-20010904/DTD/svg10.dtd">
<svg version="1.0" xmlns="http://www.w3.org/2000/svg"
 width="500.000000pt" height="500.000000pt" viewBox="0 0 500.000000 500.000000"
 preserveAspectRatio="xMidYMid meet">
<metadata>
Created by potrace 1.11, written by Peter Selinger 2001-2013
</metadata>
<g transform="translate(0.000000,500.000000) scale(0.100000,-0.100000)"
fill="#000000" stroke="none">
<path d="M3855 3568 c-71 -19 -169 -62 -215 -95 -58 -42 -150 -148 -184 -213
-20 -38 -45 -104 -56 -146 -25 -98 -27 -230 -4 -263 20 -28 76 -53 101 -45 68
22 90 57 92 146 1 87 10 128 41 193 120 251 459 308 655 110 89 -90 124 -186
120 -331 -4 -132 -38 -218 -124 -310 -54 -57 -109 -92 -186 -118 -59 -20 -84
-20 -1847 -21 -1650 -2 -1789 -3 -1812 -19 -36 -23 -59 -71 -51 -106 8 -37 48
-77 83 -82 15 -2 828 -3 1807 -2 1583 1 1786 2 1835 16 85 25 158 54 170 69 3
3 19 13 37 22 36 19 137 115 175 167 43 60 77 136 102 230 20 73 24 109 22
198 -2 60 -7 115 -11 121 -4 7 -9 25 -11 41 -6 35 -56 141 -94 194 -140 204
-410 305 -645 244z"/>
<path d="M858 2879 c-59 -22 -72 -123 -21 -171 l25 -23 784 0 784 0 26 26 c16
16 28 41 31 67 5 37 2 45 -30 77 l-35 35 -768 -1 c-473 0 -779 -4 -796 -10z"/>
<path d="M996 2040 c-34 -17 -56 -52 -56 -90 0 -39 35 -88 70 -97 16 -4 490
-7 1053 -6 1107 1 1091 2 1199 -53 104 -53 197 -168 228 -283 29 -110 15 -252
-35 -351 -37 -72 -144 -169 -205 -185 -3 -1 -12 -5 -20 -8 -35 -15 -100 -23
-162 -21 -132 5 -275 99 -336 220 -32 64 -42 105 -46 195 -2 47 -9 95 -17 106
-26 42 -79 58 -126 38 -50 -21 -67 -57 -66 -134 3 -129 18 -194 71 -301 73
-147 228 -270 397 -316 68 -18 235 -27 235 -12 0 5 4 7 8 4 15 -9 115 22 191
60 92 46 203 152 254 244 67 122 96 298 73 450 -33 211 -181 405 -380 496
-130 59 -86 57 -1240 58 -932 1 -1064 0 -1090 -14z"/>
</g>
</svg>
