<?xml version="1.0" standalone="no"?>
<!DOCTYPE svg PUBLIC "-//W3C//DTD SVG 20010904//EN"
 "http://www.w3.org/TR/2001/REC-SVG-20010904/DTD/svg10.dtd">
<svg version="1.0" xmlns="http://www.w3.org/2000/svg"
 width="500.000000pt" height="500.000000pt" viewBox="0 0 500.000000 500.000000"
 preserveAspectRatio="xMidYMid meet">
<metadata>
Created by potrace 1.11, written by Peter Selinger 2001-2013
</metadata>
<g transform="translate(0.000000,500.000000) scale(0.100000,-0.100000)"
fill="#000000" stroke="none">
<path d="M3861 3910 c-287 -68 -481 -317 -481 -617 0 -89 13 -117 65 -139 54
-22 117 6 134 59 5 18 10 59 10 92 2 84 8 111 42 182 44 92 125 165 228 204
138 52 305 18 414 -85 90 -84 128 -175 132 -311 5 -217 -100 -377 -300 -456
l-60 -24 -1785 -2 c-982 -1 -1791 -2 -1799 -2 -21 -1 -81 -70 -81 -93 0 -35
30 -86 60 -100 41 -20 3565 -19 3655 1 33 8 102 33 152 57 153 73 275 212 332
378 11 31 18 56 16 56 -2 0 2 17 9 38 13 37 15 201 3 267 -23 123 -103 268
-194 348 -92 81 -169 120 -308 154 -52 13 -175 9 -244 -7z"/>
<path d="M838 3201 c-28 -25 -33 -36 -33 -75 0 -36 6 -51 28 -73 l27 -28 785
0 785 0 26 26 c15 16 28 41 31 66 5 35 1 45 -25 74 l-30 34 -781 3 -780 2 -33
-29z"/>
<path d="M996 2380 c-63 -31 -75 -110 -25 -159 17 -17 38 -31 47 -32 9 0 487
-2 1062 -3 575 -2 1059 -6 1075 -10 63 -15 157 -67 209 -116 94 -89 144 -217
141 -360 -3 -119 -42 -214 -121 -293 -126 -128 -317 -159 -474 -76 -143 76
-218 201 -224 372 -4 112 -35 152 -114 150 -27 -1 -43 -9 -64 -32 -28 -32 -30
-40 -30 -122 1 -298 209 -553 502 -614 186 -40 402 27 545 169 129 128 186
269 186 464 0 113 -1 122 -27 211 -24 85 -66 159 -144 254 -28 35 -135 114
-190 142 -30 15 -86 37 -125 48 -68 20 -94 20 -1134 22 -939 1 -1068 -1 -1095
-15z"/>
</g>
</svg>
