<?xml version="1.0" standalone="no"?>
<!DOCTYPE svg PUBLIC "-//W3C//DTD SVG 20010904//EN"
 "http://www.w3.org/TR/2001/REC-SVG-20010904/DTD/svg10.dtd">
<svg version="1.0" xmlns="http://www.w3.org/2000/svg"
 width="16.000000pt" height="16.000000pt" viewBox="0 0 16.000000 16.000000"
 preserveAspectRatio="xMidYMid meet">
<metadata>
Created by potrace 1.11, written by Peter Selinger 2001-2013
</metadata>
<g transform="translate(0.000000,16.000000) scale(0.004000,-0.004000)"
fill="#000000" stroke="none">
<path d="M2102 2744 c-79 -16 -138 -50 -191 -110 -45 -51 -81 -136 -81 -189
l0 -35 55 0 c50 0 55 2 55 23 0 43 47 125 90 156 57 41 103 55 167 48 161 -17
258 -189 187 -330 -23 -45 -62 -85 -109 -110 -40 -22 -44 -22 -767 -25 l-728
-3 0 -55 0 -54 743 2 742 3 55 26 c72 35 136 99 168 168 22 47 26 71 27 146 0
82 -3 96 -33 157 -71 146 -217 215 -380 182z"/>
<path d="M2965 2732 c-161 -56 -280 -188 -314 -350 -19 -91 -19 -92 43 -92
l53 0 13 62 c23 118 84 199 188 250 61 30 74 33 162 33 115 0 167 -22 246
-100 67 -66 95 -139 95 -245 0 -144 -64 -251 -189 -312 l-67 -33 -1382 -3
-1383 -2 0 -55 0 -55 1368 0 c1495 0 1430 -2 1532 57 233 137 307 442 160 658
-35 51 -117 128 -160 150 -110 57 -262 73 -365 37z"/>
<path d="M1132 1653 l3 -58 810 -2 c446 0 823 -1 838 -2 17 -1 40 -13 58 -30
24 -24 29 -38 29 -76 0 -82 -30 -117 -106 -123 -51 -4 -56 -2 -89 31 -19 19
-35 44 -35 56 0 19 -6 21 -56 21 l-57 0 6 -42 c13 -97 116 -178 226 -178 126
0 222 97 222 224 0 96 -49 174 -136 213 -37 17 -95 18 -878 21 l-838 3 3 -58z"/>
</g>
</svg>
