<?xml version="1.0" standalone="no"?>
<!DOCTYPE svg PUBLIC "-//W3C//DTD SVG 20010904//EN"
 "http://www.w3.org/TR/2001/REC-SVG-20010904/DTD/svg10.dtd">
<svg version="1.0" xmlns="http://www.w3.org/2000/svg"
 width="512.000000pt" height="512.000000pt" viewBox="0 0 512.000000 512.000000"
 preserveAspectRatio="xMidYMid meet">
<metadata>
Created by potrace 1.11, written by Peter Selinger 2001-2013
</metadata>
<g transform="translate(0.000000,512.000000) scale(0.100000,-0.100000)"
fill="#000000" stroke="none">
<path d="M3932 4050 c-124 -33 -226 -93 -323 -190 -73 -73 -94 -101 -132 -180
-72 -150 -97 -310 -61 -386 36 -77 146 -109 213 -62 55 38 72 68 81 149 12
110 42 180 107 249 167 181 451 171 603 -21 70 -89 101 -212 80 -316 -35 -169
-170 -299 -336 -323 -44 -6 -742 -10 -1910 -10 l-1841 0 -34 -23 c-19 -12 -45
-44 -58 -70 -22 -44 -23 -52 -11 -90 16 -53 65 -102 118 -116 30 -8 559 -11
1914 -8 2028 3 1893 0 2035 55 80 30 185 106 256 183 72 77 135 192 163 299
22 80 24 253 5 330 -61 244 -226 427 -464 513 -70 25 -100 30 -207 33 -102 3
-138 1 -198 -16z"/>
<path d="M816 3427 c-101 -58 -101 -206 0 -264 l39 -23 727 3 c716 2 727 2
754 23 51 38 69 71 69 129 0 58 -18 91 -69 129 -27 21 -38 21 -754 23 l-727 3
-39 -23z"/>
<path d="M1086 2436 c-101 -61 -100 -206 2 -264 l40 -22 1013 0 c827 0 1023
-3 1065 -14 252 -67 373 -331 259 -563 -110 -222 -402 -291 -593 -139 -97 78
-147 171 -158 297 -5 46 -14 81 -28 102 -68 101 -213 91 -267 -19 -19 -40 -21
-55 -15 -120 27 -300 242 -553 536 -631 77 -21 261 -23 330 -4 140 37 253 102
350 201 78 79 131 166 167 275 24 71 27 95 27 215 0 120 -3 144 -27 215 -83
250 -281 426 -539 480 -58 13 -237 15 -1096 15 l-1027 0 -39 -24z"/>
</g>
</svg>
